<svg xmlns="http://www.w3.org/2000/svg" width="500" height="500" viewBox="0 0 500 500" version="1.1"><path d="M 173 109.052 C 157.111 113.165, 144.007 122.257, 138.837 132.754 L 136.500 137.500 136.500 227.500 C 136.500 313.396, 136.585 317.660, 138.364 321 C 140.970 325.893, 144.849 329.849, 149.272 332.123 C 152.855 333.966, 155.124 334.049, 194.272 333.782 L 235.500 333.500 240.150 330.271 C 243.283 328.095, 245.649 325.339, 247.400 321.824 L 250 316.607 250 228.341 C 250 141.106, 249.975 140.009, 247.899 134.459 C 243.650 123.104, 228.491 112.388, 211.303 108.590 C 201.085 106.333, 182.645 106.555, 173 109.052 M 53.500 183.421 C 39.090 187.025, 23.722 198.897, 15.877 212.485 C 14.284 215.243, 11.860 221.011, 10.491 225.302 C 8.054 232.933, 8 233.792, 8 264.584 C 8 299.521, 8.086 300.073, 14.467 306.271 C 21.232 312.841, 22.511 313.001, 68.428 312.994 C 92.857 312.991, 110.966 312.582, 113.118 311.984 C 118.663 310.444, 123.134 306.954, 126.469 301.562 L 129.500 296.662 129.792 266.764 C 130.064 238.944, 129.938 236.333, 127.979 229.183 C 124.456 216.326, 120.476 209.455, 111.015 199.899 C 101.978 190.770, 94.647 186.321, 83.955 183.475 C 77.320 181.710, 60.461 181.680, 53.500 183.421 M 425.500 187.956 C 403.514 192.732, 385.065 210.044, 378.564 232 C 376.039 240.526, 375.519 254.171, 377.380 263 C 382.460 287.086, 401.481 306.663, 424.500 311.496 C 438.117 314.354, 451.078 312.671, 464 306.366 C 473.927 301.523, 486.032 289.496, 490.789 279.751 C 497.316 266.381, 499.498 251.199, 496.873 237.417 C 496.253 234.163, 493.787 227.295, 491.392 222.156 C 487.835 214.524, 485.706 211.486, 479.769 205.574 C 467.330 193.188, 455.875 188.031, 439.500 187.445 C 434 187.248, 427.700 187.478, 425.500 187.956 M 293.112 215.045 C 276.442 219.411, 265.586 226.894, 259.250 238.387 L 257 242.469 257.022 312.985 C 257.047 393.730, 256.366 387.649, 266.494 397.537 C 272.825 403.718, 283.026 409.047, 293.528 411.661 C 304.099 414.291, 324.143 414.057, 334.299 411.185 C 345.482 408.022, 353.563 403.603, 359.982 397.139 C 370.277 386.772, 369.500 393.645, 369.500 313 L 369.500 242.500 367.144 238.082 C 361.572 227.634, 346.944 218.046, 331.303 214.590 C 321.090 212.334, 302.625 212.554, 293.112 215.045" stroke="none" fill="#040404" fill-rule="evenodd"/><path d="M 0 250.002 L 0 500.004 250.250 499.752 L 500.500 499.500 500.752 249.750 L 501.004 0 250.502 0 L 0 0 0 250.002 M 0.492 250.500 C 0.492 388, 0.608 444.101, 0.750 375.170 C 0.892 306.238, 0.892 193.738, 0.750 125.170 C 0.608 56.601, 0.492 113, 0.492 250.500 M 173 109.052 C 157.111 113.165, 144.007 122.257, 138.837 132.754 L 136.500 137.500 136.500 227.500 C 136.500 313.396, 136.585 317.660, 138.364 321 C 140.970 325.893, 144.849 329.849, 149.272 332.123 C 152.855 333.966, 155.124 334.049, 194.272 333.782 L 235.500 333.500 240.150 330.271 C 243.283 328.095, 245.649 325.339, 247.400 321.824 L 250 316.607 250 228.341 C 250 141.106, 249.975 140.009, 247.899 134.459 C 243.650 123.104, 228.491 112.388, 211.303 108.590 C 201.085 106.333, 182.645 106.555, 173 109.052 M 53.500 183.421 C 39.090 187.025, 23.722 198.897, 15.877 212.485 C 14.284 215.243, 11.860 221.011, 10.491 225.302 C 8.054 232.933, 8 233.792, 8 264.584 C 8 299.521, 8.086 300.073, 14.467 306.271 C 21.232 312.841, 22.511 313.001, 68.428 312.994 C 92.857 312.991, 110.966 312.582, 113.118 311.984 C 118.663 310.444, 123.134 306.954, 126.469 301.562 L 129.500 296.662 129.792 266.764 C 130.064 238.944, 129.938 236.333, 127.979 229.183 C 124.456 216.326, 120.476 209.455, 111.015 199.899 C 101.978 190.770, 94.647 186.321, 83.955 183.475 C 77.320 181.710, 60.461 181.680, 53.500 183.421 M 425.500 187.956 C 403.514 192.732, 385.065 210.044, 378.564 232 C 376.039 240.526, 375.519 254.171, 377.380 263 C 382.460 287.086, 401.481 306.663, 424.500 311.496 C 438.117 314.354, 451.078 312.671, 464 306.366 C 473.927 301.523, 486.032 289.496, 490.789 279.751 C 497.316 266.381, 499.498 251.199, 496.873 237.417 C 496.253 234.163, 493.787 227.295, 491.392 222.156 C 487.835 214.524, 485.706 211.486, 479.769 205.574 C 467.330 193.188, 455.875 188.031, 439.500 187.445 C 434 187.248, 427.700 187.478, 425.500 187.956 M 293.112 215.045 C 276.442 219.411, 265.586 226.894, 259.250 238.387 L 257 242.469 257.022 312.985 C 257.047 393.730, 256.366 387.649, 266.494 397.537 C 272.825 403.718, 283.026 409.047, 293.528 411.661 C 304.099 414.291, 324.143 414.057, 334.299 411.185 C 345.482 408.022, 353.563 403.603, 359.982 397.139 C 370.277 386.772, 369.500 393.645, 369.500 313 L 369.500 242.500 367.144 238.082 C 361.572 227.634, 346.944 218.046, 331.303 214.590 C 321.090 212.334, 302.625 212.554, 293.112 215.045" stroke="none" fill="#f3d353" fill-rule="evenodd"/></svg>